<?xml version="1.0" standalone="no"?>
<!DOCTYPE svg PUBLIC "-//W3C//DTD SVG 20010904//EN"
 "http://www.w3.org/TR/2001/REC-SVG-20010904/DTD/svg10.dtd">
<svg version="1.0" xmlns="http://www.w3.org/2000/svg"
 width="64.000000pt" height="64.000000pt" viewBox="0 0 64.000000 64.000000"
 preserveAspectRatio="xMidYMid meet">

<g transform="translate(0.000000,64.000000) scale(0.100000,-0.100000)"
fill="#000000" stroke="none">
<path d="M280 613 c-34 -13 -71 -59 -76 -94 -5 -31 -11 -38 -35 -43 -15 -3
-33 -14 -39 -25 -6 -11 -15 -100 -20 -198 -9 -167 -9 -180 9 -203 l18 -25 183
0 183 0 18 25 c18 23 18 36 9 204 -6 98 -15 187 -21 197 -5 11 -23 22 -38 25
-24 5 -30 12 -35 43 -8 50 -52 91 -102 97 -22 2 -46 1 -54 -3z m95 -58 c14
-13 25 -36 25 -50 0 -25 -1 -25 -80 -25 -79 0 -80 0 -80 25 0 36 42 75 80 75
19 0 40 -9 55 -25z m100 -124 c8 -13 25 -340 18 -357 -8 -21 -338 -20 -347 1
-6 17 11 342 20 356 7 12 301 12 309 0z"/>
<path d="M217 413 c-4 -3 -7 -12 -7 -20 0 -15 26 -18 34 -4 7 11 -18 33 -27
24z"/>
<path d="M401 406 c-12 -14 -5 -26 16 -26 15 0 18 26 4 34 -5 3 -14 0 -20 -8z"/>
</g>
</svg>
